<svg height="1664" viewBox="0 0 1664 1664" width="1664" xmlns="http://www.w3.org/2000/svg"><path d="m1024 672v64q0 13-9.5 22.5-9.5 9.5-22.5 9.5h-576q-13 0-22.5-9.5-9.5-9.5-9.5-22.5v-64q0-13 9.5-22.5 9.5-9.5 22.5-9.5h576q13 0 22.5 9.5 9.5 9.5 9.5 22.5zm128 32q0-185-131.5-316.5-131.5-131.5-316.5-131.5-185 0-316.5 131.5-131.5 131.5-131.5 316.5 0 185 131.5 316.5 131.5 131.5 316.5 131.5 185 0 316.5-131.5 131.5-131.5 131.5-316.5zm512 832q0 53-37.5 90.5-37.5 37.5-90.5 37.5-54 0-90-38l-343-342q-179 124-399 124-143 0-273.5-55.5-130.5-55.5-225-150-94.5-94.5-150-225-55.5-130.5-55.5-273.5 0-143 55.5-273.5 55.5-130.5 150-225 94.5-94.5 225-150 130.5-55.5 273.5-55.5 143 0 273.5 55.5 130.5 55.5 225 150 94.5 94.5 150 225 55.5 130.5 55.5 273.5 0 220-124 399l343 343q37 37 37 90z"/></svg>
