<svg height="1664" viewBox="0 0 6614.0004 1664" width="6614" xmlns="http://www.w3.org/2000/svg"><path d="m1024 671.99999v64q0 13-9.5 22.5-9.5 9.5-22.5 9.5h-576q-13 0-22.5-9.5-9.5-9.5-9.5-22.5v-64q0-13 9.5-22.5 9.5-9.5 22.5-9.5h576q13 0 22.5 9.5 9.5 9.5 9.5 22.5zm128 32q0-184.99999-131.5-316.49999-131.5-131.5-316.5-131.5-185 0-316.5 131.5-131.5 131.5-131.5 316.49999 0 185 131.5 316.50001 131.5 131.5 316.5 131.5 185 0 316.5-131.5 131.5-131.50001 131.5-316.50001zm512 832.00001q0 53-37.5 90.5-37.5 37.5-90.5 37.5-54 0-90-38l-343-342q-179 124-399 124-143 0-273.5-55.5-130.5-55.5-225-150-94.5-94.5-150-225.00001-55.5-130.5-55.5-273.5 0-143 55.5-273.49999 55.5-130.5 150-225 94.5-94.5 225-150 130.5-55.5 273.5-55.5 143 0 273.5 55.5 130.5 55.5 225 150 94.5 94.5 150 225 55.5 130.49999 55.5 273.49999 0 220-124 399.00001l343 343q37 37 37 90z" fill="#9c3493"/><path d="m1670 142v950h119.9913v-790.33613h2.6665l297.3121 790.33613h107.9923l297.3121-790.33613h2.6665v790.33613h119.9914v-950h-173.3209l-301.3118 798.31935-299.9787-798.31935z"/><path d="m2764.0467 142v950h126.6575v-950z"/><path d="m3033.7147 142v950h119.9914v-762.39495h2.6664l497.2979 762.39495h138.6567v-950h-119.9914v770.3781h-2.6665l-501.2975-770.3781z"/><path d="m3933.8584 142v950h126.6577v-950z"/><path d="m4331.5173 550.47339v-302.03081h253.3153q41.3303 0 77.3277 5.32213 37.3308 3.9916 65.3287 19.95798 27.998 15.96639 43.9969 45.2381 15.9989 29.2717 15.9989 79.83193 0 75.84033-47.9966 114.42577-46.6634 37.2549-154.6556 37.2549zm-126.6575-408.47339v950h459.967q70.6617 0 123.9912-22.619 54.6627-23.9497 90.6602-61.2045 37.3307-38.5855 55.996-87.81518 18.6653-49.22969 18.6653-101.12047 0-87.81505-46.6633-149.01956-46.6634-61.2045-134.6571-79.83193v-2.66111q67.9952-26.61064 103.9926-81.16242 37.3307-55.88236 37.3307-131.72269 0-71.84874-33.3309-121.07843-31.9978-49.22969-78.6611-77.17087-21.3318-13.30532-51.9963-19.95798-29.3312-6.65266-63.9954-9.31373-34.6642-3.9916-70.6617-3.9916-34.6642-1.33053-65.3286-1.33053zm126.6575 843.55743v-328.64146h289.3127q39.9971 0 77.3277 7.98322 37.3308 6.65261 65.3287 25.28004 29.3313 17.29693 46.6634 47.89918 17.3321 30.60225 17.3321 77.17093 0 79.83193-47.9966 125.07001-46.6633 45.23808-130.6573 45.23808z"/><path d="m5212.8502 699.49304 161.3217-443.06726h2.6665l158.6553 443.06726zm94.6598-557.49304-370.6401 950h129.3241l106.659-286.06448h402.6379l103.9925 286.06448h139.9901l-371.9735-950z"/><path d="m5843.3884 142v950h126.6576v-405.81228h309.3113q46.6632 0 74.6612 14.63583 27.9981 13.30532 45.3302 37.25486 17.332 22.61904 25.3314 54.55179 7.9995 30.60225 13.3324 65.19611 6.6663 34.59386 7.9995 70.51822 1.3332 35.92436 2.6665 67.85711 1.3332 30.60226 5.3329 55.88236 5.3329 25.2802 18.6653 39.916h141.3233q-19.9986-23.9495-30.6645-54.5518-9.3327-31.9328-14.6656-66.5266-5.333-34.59386-6.6662-70.51822-1.3332-35.92436-3.9998-70.51822-3.9997-34.59385-11.999-66.52661-6.6663-31.93275-22.6652-57.2129-14.6656-26.61064-41.3303-45.23807-25.3316-18.62743-66.6619-26.61065v-2.6611q86.6605-23.94954 125.3243-89.14565 39.9972-65.19606 39.9972-151.68066 0-115.75629-77.3278-182.28291-75.9946-66.52661-211.9849-66.52661zm390.6387 437.74514h-263.9811v-331.30256h314.6442q89.3269 0 129.3241 45.2381 39.9971 45.23808 39.9971 117.08683 0 51.89075-18.6653 85.15406-17.3321 31.93277-47.9966 51.89072-29.3313 18.62753-69.3284 25.28014-39.9972 6.65271-83.994 6.65271z"/></svg>